PathFileType	4	(X/Y/Z)	Run_500 02
DataRate	CameraRate	NumFrames	NumMarkers	Units	OrigDataRate	OrigDataStartFrame	OrigNumFrames
120	120	6	42	mm	120	243	128
Frame#	Time	LASI			RASI			LPSI			RPSI			RTH1			RTH2			RTH3			LTH1			LTH2			LTH3			RTB1			RTB2			RTB3			LTB1			LTB2			LTB3			RCAL			RTOE			RMT5			LCAL			LTOE			LMT5			LACR			RACR			CLAV			C7			RUA1			RUA2			RUA3			RLEL			RMEL			LUA1			LUA2			LUA3			LLEL			LMEL			RFAsuperior			RFAradius			RFAulna			LFAsuperior			LFAradius			LFAulna		
		X1	Y1	Z1	X2	Y2	Z2	X3	Y3	Z3	X4	Y4	Z4	X5	Y5	Z5	X6	Y6	Z6	X7	Y7	Z7	X8	Y8	Z8	X9	Y9	Z9	X10	Y10	Z10	X11	Y11	Z11	X12	Y12	Z12	X13	Y13	Z13	X14	Y14	Z14	X15	Y15	Z15	X16	Y16	Z16	X17	Y17	Z17	X18	Y18	Z18	X19	Y19	Z19	X20	Y20	Z20	X21	Y21	Z21	X22	Y22	Z22	X23	Y23	Z23	X24	Y24	Z24	X25	Y25	Z25	X26	Y26	Z26	X27	Y27	Z27	X28	Y28	Z28	X29	Y29	Z29	X30	Y30	Z30	X31	Y31	Z31	X32	Y32	Z32	X33	Y33	Z33	X34	Y34	Z34	X35	Y35	Z35	X36	Y36	Z36	X37	Y37	Z37	X38	Y38	Z38	X39	Y39	Z39	X40	Y40	Z40	X41	Y41	Z41	X42	Y42	Z42	

243	  2.025000	744.810807	946.908122	-468.063330	719.817999	960.335445	-212.821714	572.071416	993.847828	-408.059065	564.061383	1000.381355	-320.703902	695.048913	785.078826	-188.397246	775.597143	674.962889	-222.190678	711.527854	543.662358	-232.711113	722.342366	808.045595	-516.384923	809.770460	714.757931	-510.471448	780.743539	574.699124	-522.707680	727.230170	335.868992	-311.939970	671.049619	288.709724	-254.614093	621.292907	189.028660	-326.303584	699.518641	475.781585	-434.082083	611.745610	541.612533	-491.379924	534.807445	567.818108	-414.920270	451.496488	105.173627	-317.117668	668.490650	 64.914667	-338.105087	637.926652	 62.446780	-239.527238	455.828919	716.176292	-431.921687	378.202668	516.661106	-390.428197	359.963497	535.691884	-481.114810	767.885516	1415.955965	-516.318502	756.810597	1403.362004	-149.529243	860.345374	1347.358554	-305.795233	743.177761	1458.047215	-332.801025	727.684425	1308.174686	-73.629418	753.997208	1252.301375	-49.350870	652.799828	1219.267535	-37.037956	687.948724	1170.073176	 39.267987	672.192087	1106.773517	-20.943144	709.317513	1378.390123	-572.758688	631.908744	1338.559155	-548.849466	657.769973	1316.352003	-621.046818	587.602966	1245.320521	-679.127134	531.534408	1219.116525	-617.267517	773.836883	1176.606199	 37.828125	934.766993	1179.942113	-13.009214	921.263081	1118.794842	 17.692645	639.499686	1190.904333	-674.928790	732.513632	1051.318100	-597.006668	684.494920	1022.140444	-636.516778	
244	  2.033333	743.973323	950.378125	-468.860419	717.329167	957.773186	-212.039632	570.067212	995.176813	-405.281051	563.319922	1002.159286	-318.580630	686.338553	784.565683	-188.842279	760.701107	669.971528	-223.863210	688.293101	541.846877	-231.715859	725.511353	813.474695	-516.665124	822.363817	728.798203	-508.078172	802.640682	586.644030	-521.111578	692.539776	332.858563	-311.475874	635.038894	287.733384	-254.061527	582.533488	189.534205	-326.213555	727.295469	480.176609	-431.773922	634.623215	539.108169	-490.135649	555.643948	557.653863	-414.930208	409.679509	107.250946	-316.912952	626.242914	 65.653269	-337.670193	595.295002	 62.290643	-239.541133	462.209144	698.505227	-433.000786	404.596553	492.207631	-392.743321	386.222956	509.362604	-483.911023	761.268451	1420.932725	-515.991015	760.321430	1404.973940	-149.958825	859.589580	1350.593559	-309.226257	740.873457	1460.286614	-332.616093	736.311708	1307.303382	-74.604388	764.847250	1251.820722	-52.229195	665.226437	1216.065184	-36.550230	705.286346	1166.449434	 36.590315	689.078713	1103.682157	-24.601119	701.762148	1384.514841	-571.671255	624.932868	1344.673599	-547.186020	649.170945	1323.184355	-620.332199	577.267895	1252.879608	-677.979746	523.251576	1226.240331	-614.358844	790.806730	1176.433376	 30.245229	947.872677	1187.640475	-30.597038	939.142591	1125.470221	 -0.675902	629.190662	1198.612204	-675.548810	725.971139	1060.474237	-599.938274	677.494738	1030.777451	-638.132288	
245	  2.041667	743.531718	955.083286	-470.083933	716.591937	956.280883	-212.010631	568.895063	997.671960	-402.793447	563.386979	1004.242632	-316.823321	678.724810	784.993281	-189.566133	745.112587	666.158870	-225.912920	663.966427	541.725523	-230.815001	729.667706	820.696420	-516.953026	832.929743	744.290626	-505.852085	822.791225	600.379969	-518.826823	657.460259	332.371627	-309.983671	598.329685	289.298792	-252.880428	543.789718	191.692102	-324.967925	753.740950	485.584262	-428.976056	656.233236	536.550896	-488.350312	575.740293	546.312420	-414.598708	368.451300	111.054779	-316.024745	584.253546	 66.108059	-336.933490	552.669057	 62.110037	-239.681955	468.086773	677.420742	-432.927887	432.592237	465.631900	-395.271884	413.839056	481.729256	-486.580228	754.519351	1426.669672	-515.553006	764.350293	1407.697340	-150.412291	858.992999	1354.813420	-312.817225	738.884439	1463.570609	-332.126344	745.771781	1307.760254	-75.881624	776.391060	1252.221217	-55.936414	678.459816	1215.012785	-34.987495	722.964732	1164.560959	 33.318551	704.656155	1102.503290	-28.336246	694.325965	1391.273679	-570.446383	617.780440	1351.812775	-545.988823	641.009506	1330.628353	-619.802625	567.460131	1260.936203	-676.960270	515.115878	1234.134910	-611.842735	807.355783	1177.905113	 21.776549	959.262554	1196.120284	-49.087460	955.085222	1133.189313	-20.255109	619.546607	1207.084322	-675.995913	719.841277	1071.001743	-602.386480	671.242181	1040.570116	-639.471835	
246	  2.050000	743.452634	960.965324	-471.218619	717.951872	956.825857	-212.524382	568.858952	1001.386290	-400.946292	564.288881	1007.022509	-315.257557	671.813580	786.170406	-190.396472	728.330820	663.446760	-227.637692	638.489986	543.591860	-230.292971	734.509441	829.319505	-517.027816	841.614371	760.083341	-503.875399	841.349335	615.109000	-516.292029	622.543217	334.263899	-307.757037	561.510593	292.946779	-251.461389	505.498887	195.598041	-323.133631	779.248856	491.500753	-426.158401	677.316909	533.281228	-486.349577	595.500000	533.820988	-413.965351	328.583402	117.444416	-314.340485	542.794303	 66.032010	-335.943513	510.278243	 62.074210	-239.956536	474.639138	653.071599	-431.798069	463.135848	437.841494	-397.740398	443.648222	453.355775	-488.851987	747.789894	1433.013033	-514.909374	768.940005	1411.359785	-150.966334	858.463091	1360.091333	-316.542232	737.270520	1467.716876	-331.338490	755.945944	1309.494852	-77.534452	788.326845	1253.652537	-60.619772	692.265665	1215.983145	-32.940517	740.663137	1164.440877	 29.429465	718.692938	1103.185128	-31.988524	687.020709	1398.593976	-569.042234	610.668886	1359.579928	-544.921977	633.287887	1338.596281	-619.282593	558.377706	1269.562731	-675.933043	507.191968	1242.612020	-609.782872	823.327907	1180.853436	 12.634762	968.824536	1205.144322	-68.195835	968.896060	1141.651122	-40.719353	610.824110	1216.461624	-676.122166	713.895763	1082.402978	-604.325614	665.585486	1051.221647	-640.639151	
247	  2.058333	743.793602	967.816251	-471.784004	721.155558	959.678660	-213.801800	570.000820	1005.958021	-399.762097	566.005950	1010.621908	-313.660769	664.963784	787.969229	-191.139343	710.480215	662.076262	-228.554372	612.520369	547.782609	-230.062333	739.510983	838.678160	-516.825844	848.997394	775.498859	-502.193937	858.416657	630.331979	-513.853191	588.274577	338.652166	-305.126531	525.409103	298.687400	-249.805971	468.376108	201.563030	-320.959061	803.966825	497.424667	-423.778768	698.264586	529.012697	-484.324677	615.498566	520.276853	-412.974058	290.769458	126.949954	-311.968394	501.925089	 65.431841	-334.895954	468.218314	 62.285346	-240.377451	482.832881	625.722495	-429.733330	496.752840	409.894323	-399.765758	476.090878	424.836831	-490.460139	741.257891	1439.779060	-514.049252	773.944303	1415.790546	-151.764221	857.880035	1366.345740	-320.382795	735.914254	1472.415016	-330.473208	766.517366	1312.373515	-79.630122	800.211318	1256.205469	-66.235020	706.303502	1218.753976	-31.003095	757.987748	1166.050820	 24.930742	731.186025	1105.571573	-35.558041	679.899293	1406.369145	-567.460754	603.809806	1367.704613	-543.768073	625.964884	1346.969096	-618.637698	550.043391	1278.715307	-674.822294	499.538881	1251.476917	-608.109569	838.496694	1185.089690	  2.978666	976.501701	1214.515187	-87.647605	980.494642	1150.654357	-61.647231	603.030482	1226.694520	-675.872500	708.145973	1094.343300	-605.907835	660.440868	1062.461248	-641.726745	
248	  2.066667	744.606706	975.184144	-471.551419	725.352736	964.216626	-216.167441	572.081749	1010.966553	-399.025339	568.416414	1014.901898	-311.963361	657.745127	790.443209	-191.680571	692.324097	662.416967	-228.510200	587.009530	554.456364	-229.760671	744.322925	848.125878	-516.497971	855.697370	790.328139	-500.784843	873.884051	645.757669	-511.713551	555.045886	345.698510	-302.276704	490.823855	306.870325	-247.521735	433.266732	209.782216	-318.233080	827.781517	502.955544	-422.017716	719.159604	523.732862	-482.358236	636.463605	505.734553	-411.574109	255.573433	139.588627	-309.177611	461.535084	 64.395907	-334.023775	426.641237	 62.742469	-240.866115	493.422428	595.745859	-426.936170	533.447935	382.702675	-400.954255	511.148303	396.663495	-491.250371	735.056538	1446.743109	-513.025553	779.084215	1420.839521	-152.912020	857.123489	1373.320127	-324.278938	734.654766	1477.366042	-329.772671	777.062267	1316.229182	-82.164679	811.584073	1259.809921	-72.574685	720.258054	1222.974821	-29.522012	774.604921	1169.168913	 19.936607	742.396309	1109.318109	-39.036679	673.070246	1414.418588	-565.747209	597.358503	1376.029886	-542.466543	619.001666	1355.603573	-617.827954	542.338057	1288.236707	-673.619656	492.228438	1260.536732	-606.668105	852.612915	1190.388151	 -7.036920	982.283298	1224.061440	-107.162619	989.891938	1160.066235	-82.562716	595.970063	1237.525570	-675.295261	702.718839	1106.588720	-607.338123	655.766271	1074.037165	-642.846103	
